<svg xmlns="http://www.w3.org/2000/svg" viewBox="0 0 99.45 96.86"><defs><style>.cls-1{fill:#ec1c24;}.cls-2{fill:#f6921e;}</style></defs><g id="Layer_2" data-name="Layer 2"><g id="Layer_1-2" data-name="Layer 1"><g id="g68"><path id="path8" class="cls-1" d="M90.36,51.58a25.61,25.61,0,0,1-.18,3.71,45.16,45.16,0,0,1-3.9,15,50.52,50.52,0,0,1-3,5.38A45.15,45.15,0,1,1,25.05,11.13,44.61,44.61,0,0,0,21.89,16c0,.18-.18.18-.18.37-.56.55-1.11.93-1.67,1.48a21.8,21.8,0,0,0-2,2c-.19.19-.37.37-.37.56-.19.19-.37.37-.37.56l-.75.74a11.14,11.14,0,0,0-1.3,1.67,42.7,42.7,0,0,0-4.63,8c-.19.37-.19.55-.37.93s-.19.74-.38.92c-.55.37-.55.56-.55.75l-.56,1.67c-.18.37-.18.74-.37,1.11,0,.18-.19.37-.19.55,0,.38-.18.75-.18,1.12a15.63,15.63,0,0,0-.56,3.15,1.72,1.72,0,0,1-.18.93v4.64A39,39,0,0,0,21.71,77.56,39.55,39.55,0,0,0,69.77,79a36.86,36.86,0,0,0,11.5-13c.37-.74.74-1.29,1.11-2a39.88,39.88,0,0,0,3.71-15.58v-1.3a28.29,28.29,0,0,0-.18-3.9l.18.19A7.49,7.49,0,0,0,88,44.9a13.57,13.57,0,0,1,1.85-2.6,49,49,0,0,1,.75,5.2,15.44,15.44,0,0,0-.19,4.08"></path><path id="path10" class="cls-2" d="M85.91,47.13v1.3A39,39,0,0,1,82.2,64c-.37.75-.74,1.3-1.12,2a38.7,38.7,0,0,1-11.5,13,39.55,39.55,0,0,1-48.06-1.48A39,39,0,0,1,7.05,47.13V42.49a1.65,1.65,0,0,1,.19-.93c.18-1.11.55-2.22.74-3.34,0-.37.18-.74.18-1.11,0-.19.19-.37.19-.56.19-.37.19-.74.37-1.11.19-.56.37-.93.56-1.48,0-.19.18-.38.18-.56.19-.37.19-.74.37-.93.19-.37.19-.56.38-.93a37.45,37.45,0,0,1,4.63-8c.37-.55.93-1.11,1.3-1.67.19-.18.37-.55.74-.74.19-.18.19-.37.38-.55s.37-.38.37-.56a20.65,20.65,0,0,1,2-2,11.26,11.26,0,0,1,1.67-1.49.62.62,0,0,1-.19.37c0,.19-.18.38-.18.56a47,47,0,0,0-4.27,16,39.31,39.31,0,0,0-.19,4.82c0,20.6,12.06,37.3,27.09,37.3h1.67a23.42,23.42,0,0,0,6.31-.93,23.87,23.87,0,0,0,17.63-23v-.74a23.32,23.32,0,0,0-7.42-16.51,34,34,0,0,1,8.9,1.3,41.33,41.33,0,0,1,14.85,7.42l.18.18c0,1.3.19,2.6.19,3.9"></path><path id="path12" class="cls-2" d="M85.91,47.13v1.3A39.81,39.81,0,0,1,82.2,64.2c-.37.74-.74,1.3-1.12,2a41.13,41.13,0,0,1-11.5,13.17,39.6,39.6,0,0,1-48.06-62.9l.37-.37c0,.19-.18.19-.18.37a.62.62,0,0,1-.19.37,39.36,39.36,0,0,0,.37,60.68,37.52,37.52,0,0,0,24.5,8.9,39.47,39.47,0,0,0,23-7.42,40.64,40.64,0,0,0,11.51-13c.37-.74.74-1.29,1.11-2a35.1,35.1,0,0,0,3.71-15.58v-1.3a24.34,24.34,0,0,0-.18-3.71v-.19l.18.19.19.18v3.53"></path><path id="path14" class="cls-1" d="M75.15,22.64S42.86,16.51,27.83,44.53c0,0,2.6-19.3,25.61-28.2L48.8,7.79S58.08-.56,74.22,1.67Z"></path><path id="path16" class="cls-2" d="M35.25,37.48S48.06,20.6,77.56,25.05l-.37-9.84a36,36,0,0,1,22.26,8.17L87.21,41.93s-8.35-9.83-25.79-10a56,56,0,0,0-26.17,5.57"></path><path id="path18" class="cls-1" d="M42.12,44s-2.78.56-2.6-.74c0-.55.37-.74.56-.55,0-.19-.56-.93.74-1.3.37-.56.74-1.12.93-1.49s.37-.93,1.48-.55A4.12,4.12,0,0,1,45.64,41a2.84,2.84,0,0,1,1.12.18l-.37.37s.37.19-.75.19a.41.41,0,0,0,.38.37c.18.18,0,.18,0,.37,0,0,.18.56-.38.37s-.55-.37-.74-.37-.55,0-.55.19.55.55,0,.55c-.19.19.18.37,0,.37a9.46,9.46,0,0,1-2.05,1.3c-.55,0-.74-.18-.74-.37s.37-.37.74-.37c-.18,0,0-.19-.18-.19"></path><path id="path20" class="cls-1" d="M41.93,46.94c-.18,0-1.11-.55-.55-.74A20.94,20.94,0,0,1,44,44.53c.38-.18.93.37.38.74a19.41,19.41,0,0,1-2.42,1.67"></path><path id="path22" class="cls-1" d="M44.72,45.64c0-.37.37-1.48.37-1.67s.93-.37.74.75c-.37.92-1.11,1.3-1.11.92"></path><path id="path24" class="cls-1" d="M46,43.42a54.14,54.14,0,0,1,5.56,0,6.74,6.74,0,0,1,1.67,5.38c-.37,2.41-1.11,3-4.45,3.34a9.75,9.75,0,0,0-.56-3.34c-.37-.56-1.48-1.86-1.85-1.86,0,.56-.19,2.23-.19,2.23s-1.67.19-1.85-.19V46.39A14.4,14.4,0,0,0,46,44.72c.18.18.37.92,2,.74,0,.18-2,.37-2-2"></path><path id="path26" class="cls-1" d="M44,45.83s-1.67,1.3-2,1.67c-.18.37-.37,1.86,1.67,1.86A14.91,14.91,0,0,0,44,45.83"></path><path id="path28" class="cls-1" d="M40.08,47.87c-.56,0-.93-.18-.93-.56a1.12,1.12,0,0,1,1.3-.74,1.83,1.83,0,0,1,1.3,2,3.78,3.78,0,0,0,2.6,1.12c1.29,0,2,0,2,.37v2.41s-1.49,0-5.2-2.6a1.69,1.69,0,0,1-.56-1.3c0-.55-.37-.74-.55-.74"></path><path id="path30" class="cls-1" d="M39,48.06c-.55,0-2.41,1.48-1.11,2l.74-.74s-.37.92.37,1.11.38-.37.75-.37c.18.37.18.55.55.55s.37-1.11,0-1.67a1.23,1.23,0,0,0-1.3-.92"></path><path id="path32" class="cls-1" d="M46.76,48.24v4.83s1.48-.56,1.67-.93c0-.74-.37-3.9-1.67-3.9"></path><path id="path34" class="cls-1" d="M42.86,51.4a16.4,16.4,0,0,0,3,1.67c-.19.18-.93,1.3-1.3,1.11a7.38,7.38,0,0,1-1.67-2.78"></path><path id="polygon36" class="cls-1" d="M33.77,53.25h2.6v.93H34Z"></path><path id="polygon38" class="cls-1" d="M61.42,52.7H50.84L52.51,54h8.91Z"></path><path id="path40" class="cls-1" d="M48.8,52.7c.18-.19,1.48.74,1.11.92S46.2,55.11,46,55.11c-.38-.19-.19-.93.18-1.12a16.57,16.57,0,0,0,2.6-1.29"></path><path id="path42" class="cls-1" d="M45.09,54.92c-.37-.18-2.41,1.86-1.49,2a18.24,18.24,0,0,1,3.71.93,1.44,1.44,0,0,0,.93-.93c.37,0,.93.56,1.49.37s3.15-2,3.15-2.41a6.29,6.29,0,0,0-2.23-1.11c-.37-.19-3.71,1.85-5.56,1.11"></path><path id="path44" class="cls-1" d="M44,57.52c.19,0,3,.93,3.53.93.74-.19.74-.74,1.11-.74s.56.37,1.12,0,1.85-1.49,2-1.67c0,.37,0,1.48-2.41,2.59S41.19,61.42,41,62.16a9,9,0,0,0,1.48-.37A2.09,2.09,0,0,1,43.23,64c-.18,1.3-1.11,3.34-1.11,3.9v3.53c0,.18.56,1.85-.19,1.67a1.93,1.93,0,0,0-1.48,0c-.37,0-.93.55-1.3.37-.56,0-1.3-.37-1.3-.56s.56-.19,1.11-.37.75-.74,1.67-1.11c0-.56-.37-5.2-.37-6.13s-.37-3,.19-3.71c.37-1.11,2.6-4.27,3.52-4.08"></path><path id="path46" class="cls-1" d="M47.5,60.12c0,.37,1.67,4.45,2.41,4.45s7.61-1.48,8.91-.93c.37.56,1.11,1.49,1.11,2,0,0,.19,1.3,0,1.49a1.28,1.28,0,0,0,.93-.56,11.9,11.9,0,0,0,0-2.6c0-.37.93-2-.19-1.85A51,51,0,0,1,55.29,62c-.92-.18-3.34-.74-3.89-.37a4.2,4.2,0,0,0-1.3,1.49c-.19,0-.37-.19,0-.93.18-.74,1.11-2.78.93-3.9-.56.19-3.53,1.86-3.53,1.86"></path><path id="path48" class="cls-1" d="M43.6,53.62a1.47,1.47,0,0,0,.37.75L38.59,54s-.55-.37-.37-.55Z"></path><path id="path50" class="cls-1" d="M37.67,53.25h5.38a10.81,10.81,0,0,1-.56-.93h-5s-.56,0-.56,1.12c0,.18.37.55.75-.19"></path><path id="path52" class="cls-1" d="M32.47,54.18h1.11s.38-.19,0-.56-1.11-.74-.55-1.48c-.56,0-1.3-.19-1.12,1.48h-.55s-.19-.92-1.49-.92A19,19,0,0,0,25.42,54a35.83,35.83,0,0,0,4.45.93A2,2,0,0,0,31.36,54h.37a3,3,0,0,0,.37.93V56a.57.57,0,0,0-.37.74c0,.55.37.55.56.55s.18-.18.74-.18c.18-.19,0-.93-.37-1.11v-.75s.37-.37.37-.55c-.19-.37-.56-.19-.56-.56"></path><path id="path54" class="cls-1" d="M39,59.38a1.43,1.43,0,0,0,.56-.75V55.48c0-.74-1.3-1.3-1.48-1.3a1.39,1.39,0,0,1-.75.37,1,1,0,0,1-.92-.37c-1.12,0-1.67,1.3-1.67,1.48a15.48,15.48,0,0,0,0,3,1.59,1.59,0,0,0,.55.93c-.18.74-1.29,5,.19,5.57v.74h3.71v-.74c1.11-.93.19-4.64-.19-5.75m-4.26-3.9A1.61,1.61,0,0,1,36,54.37a1.36,1.36,0,0,0,1.11.37c.37,0,.74-.37.93-.37.37.18,1.11.55,1.11,1.11v3.15c0,.19-.19.37-.37.56H38V57.71H35.63V59h-.56a.94.94,0,0,1-.37-.74V55.48m2.59,8.72h-.74a.41.41,0,0,1-.37-.37.4.4,0,0,1,.37-.37h.74a.4.4,0,0,1,.38.37.41.41,0,0,1-.38.37m1.49.37-1.86-2-1.67,2c-1.11-.37-.37-3.71,0-5.19h3.53c.37,1.48.93,4.63,0,5.19"></path><path id="path56" class="cls-1" d="M38.22,60.86a.66.66,0,0,0-.18-.93H35.81c-.74,0-.56.93-.56.93L36.55,62a2.93,2.93,0,0,0,1.67-1.11"></path><path id="path58" class="cls-1" d="M37.29,62.16l1.3,1.48s-.18-1.85-.18-2.41c-.19.19-1.12.93-1.12.93"></path><path id="path60" class="cls-1" d="M35.44,61.23c0,.56-.19,2.41-.19,2.41l1.3-1.48a7.28,7.28,0,0,0-1.11-.93"></path><path id="path62" class="cls-1" d="M38,57.33h.18v-.18A.18.18,0,0,0,38,57H36a.19.19,0,0,0-.19.19v.18H38Z"></path><path id="path64" class="cls-1" d="M35.07,65.87h-.19v.18a.19.19,0,0,0,.19.19h3.71c.18,0,.18-.19.18-.19v-.18H35.07Z"></path><path id="path66" class="cls-2" d="M22.64,52.7S8,20.6,42.12,0l8.16,15a37.46,37.46,0,0,0-11.5,7C32.29,27.65,25.42,36.92,22.64,52.7"></path></g></g></g></svg>